<svg width="695" height="626" viewBox="0 0 695 626" fill="none" xmlns="http://www.w3.org/2000/svg">
<path d="M55 117C55 83.8629 81.8629 57 115 57H695V625H55V117Z" fill="#5B0000"/>
<g clip-path="url(#clip0_35_1583)">
<g filter="url(#filter0_d_35_1583)">
<path d="M298.57 199.006H10.6175C4.75363 199.006 0 203.759 0 209.623V381.573C0 387.437 4.75363 392.19 10.6175 392.19H298.57C304.434 392.19 309.187 387.437 309.187 381.573V209.623C309.187 203.759 304.434 199.006 298.57 199.006Z" fill="#F35D5E"/>
</g>
<path opacity="0.15" d="M29.1348 263.322V362.585" stroke="white" stroke-width="2" stroke-linecap="round" stroke-linejoin="round"/>
<path opacity="0.15" d="M39.583 263.322V362.585" stroke="white" stroke-width="2" stroke-linecap="round" stroke-linejoin="round"/>
<path opacity="0.15" d="M50.0406 263.322V362.585" stroke="white" stroke-width="2" stroke-linecap="round" stroke-linejoin="round"/>
<path opacity="0.15" d="M60.4983 263.322V362.585" stroke="white" stroke-width="2" stroke-linecap="round" stroke-linejoin="round"/>
<path opacity="0.15" d="M70.9559 263.322V362.585" stroke="white" stroke-width="2" stroke-linecap="round" stroke-linejoin="round"/>
<path opacity="0.15" d="M81.4042 263.322V362.585" stroke="white" stroke-width="2" stroke-linecap="round" stroke-linejoin="round"/>
<path opacity="0.15" d="M91.8618 263.322V362.585" stroke="white" stroke-width="2" stroke-linecap="round" stroke-linejoin="round"/>
<path opacity="0.15" d="M102.319 263.322V362.585" stroke="white" stroke-width="2" stroke-linecap="round" stroke-linejoin="round"/>
<path opacity="0.15" d="M112.777 263.322V362.585" stroke="white" stroke-width="2" stroke-linecap="round" stroke-linejoin="round"/>
<path opacity="0.15" d="M123.225 263.322V362.585" stroke="white" stroke-width="2" stroke-linecap="round" stroke-linejoin="round"/>
<path opacity="0.15" d="M133.683 263.322V362.585" stroke="white" stroke-width="2" stroke-linecap="round" stroke-linejoin="round"/>
<path opacity="0.15" d="M144.141 263.322V362.585" stroke="white" stroke-width="2" stroke-linecap="round" stroke-linejoin="round"/>
<path opacity="0.15" d="M154.598 263.322V362.585" stroke="white" stroke-width="2" stroke-linecap="round" stroke-linejoin="round"/>
<path opacity="0.15" d="M165.047 263.322V362.585" stroke="white" stroke-width="2" stroke-linecap="round" stroke-linejoin="round"/>
<path opacity="0.15" d="M175.504 263.322V362.585" stroke="white" stroke-width="2" stroke-linecap="round" stroke-linejoin="round"/>
<path opacity="0.15" d="M185.962 263.322V362.585" stroke="white" stroke-width="2" stroke-linecap="round" stroke-linejoin="round"/>
<path opacity="0.15" d="M196.419 263.322V362.585" stroke="white" stroke-width="2" stroke-linecap="round" stroke-linejoin="round"/>
<path opacity="0.15" d="M206.877 263.322V362.585" stroke="white" stroke-width="2" stroke-linecap="round" stroke-linejoin="round"/>
<path opacity="0.15" d="M217.325 263.322V362.585" stroke="white" stroke-width="2" stroke-linecap="round" stroke-linejoin="round"/>
<path opacity="0.15" d="M227.783 263.322V362.585" stroke="white" stroke-width="2" stroke-linecap="round" stroke-linejoin="round"/>
<path opacity="0.15" d="M238.241 263.322V362.585" stroke="white" stroke-width="2" stroke-linecap="round" stroke-linejoin="round"/>
<path opacity="0.15" d="M248.698 263.322V362.585" stroke="white" stroke-width="2" stroke-linecap="round" stroke-linejoin="round"/>
<path opacity="0.15" d="M259.146 263.322V362.585" stroke="white" stroke-width="2" stroke-linecap="round" stroke-linejoin="round"/>
<path opacity="0.15" d="M269.604 263.322V362.585" stroke="white" stroke-width="2" stroke-linecap="round" stroke-linejoin="round"/>
<path opacity="0.15" d="M280.062 263.322V362.585" stroke="white" stroke-width="2" stroke-linecap="round" stroke-linejoin="round"/>
<path d="M89.2755 222.789H28.5422C27.0515 222.789 25.8431 223.997 25.8431 225.488V225.498C25.8431 226.988 27.0515 228.197 28.5422 228.197H89.2755C90.7662 228.197 91.9746 226.988 91.9746 225.498V225.488C91.9746 223.997 90.7662 222.789 89.2755 222.789Z" fill="#FEF8F8"/>
<path opacity="0.5" d="M69.0091 237.62H28.5422C27.0515 237.62 25.8431 238.829 25.8431 240.319V240.329C25.8431 241.819 27.0515 243.028 28.5422 243.028H69.0091C70.4998 243.028 71.7082 241.819 71.7082 240.329V240.319C71.7082 238.829 70.4998 237.62 69.0091 237.62Z" fill="#FEF8F8"/>
<path d="M29.8306 355.24C29.8306 355.24 22.514 276.968 55.2224 267.507C87.9308 258.046 80.6142 315.827 104.247 315.827C127.88 315.827 130.316 287.501 152.83 288.629C175.344 289.758 167.595 304.024 203.858 304.024H280.09" stroke="#FEF8F8" stroke-width="5.43" stroke-linecap="round" stroke-linejoin="round"/>
<path d="M29.1346 355.24C38.4262 306.422 59.2286 267.168 88.0906 273.695C116.953 280.222 105.959 319.193 148.278 319.193C190.598 319.193 184.203 293.529 209.595 293.529C234.987 293.529 226.523 304.024 280.128 304.024" stroke="#230707" stroke-width="5.43" stroke-linecap="round" stroke-linejoin="round"/>
<path d="M210.291 478.861L184.448 358.212C184.448 358.212 212.473 320.962 213.93 311.858C215.388 302.755 205.382 300.206 199.194 306.215C193.006 312.225 182.078 323.689 182.078 323.689L172.448 252.968C172.305 251.929 171.951 250.93 171.408 250.032C170.865 249.135 170.144 248.358 169.29 247.749C168.435 247.14 167.466 246.713 166.44 246.493C165.414 246.273 164.354 246.265 163.326 246.47C161.585 246.817 160.019 247.756 158.893 249.128C157.766 250.499 157.149 252.218 157.147 253.993V300.178C157.147 300.178 106.721 308.369 101.445 312.009C96.169 315.648 102.385 340.222 104.36 347.867C106.335 355.513 112.363 354.789 112.363 354.789L148.627 573.262C156.395 620.105 215.567 636.271 246.018 599.782L292.57 544.089L210.291 478.861Z" fill="url(#paint0_linear_35_1583)"/>
<path d="M210.291 478.879L225.582 539.754" stroke="#ED8772" stroke-width="3" stroke-linecap="round" stroke-linejoin="round"/>
<path d="M157.147 300.178C157.147 300.178 166.363 323.604 165.517 336.215C164.67 348.826 112.975 354.3 112.975 354.3" stroke="#ED8772" stroke-width="3" stroke-linecap="round" stroke-linejoin="round"/>
<path d="M149.548 345.742C144.15 329.877 137.868 304.758 137.868 304.758" stroke="#ED8772" stroke-width="3" stroke-linecap="round" stroke-linejoin="round"/>
<path d="M129.094 351.272C124.8 337.485 121.395 323.438 118.899 309.215" stroke="#ED8772" stroke-width="3" stroke-linecap="round" stroke-linejoin="round"/>
<path d="M691.098 423.619C682.454 458.814 671.953 493.527 659.641 527.613L644.49 544.343L631.851 558.308V558.45L619.475 625.568H332.792V490.964L328.56 496.606L292.57 544.164L210.291 478.86C210.291 478.86 216.3 466.475 225.902 448.898C227.783 445.447 229.796 441.798 231.949 438.008C232.222 437.519 232.495 437.02 232.777 436.531C237.056 429.008 241.805 420.854 246.883 412.635C249.341 408.641 251.849 404.635 254.407 400.616C256.244 397.782 258.103 394.961 259.984 392.152C263.332 387.187 266.755 382.306 270.216 377.604C283.184 359.999 296.726 344.924 309.159 337.4C309.488 337.193 309.808 337.005 310.099 336.817C317.961 332.284 327.526 328.353 337.899 324.864C342.413 323.359 347.087 321.958 351.836 320.642C376.41 313.842 403.146 309.497 421.974 306.996C426.093 306.441 429.836 305.98 433.09 305.604L437.472 305.105C443.35 304.466 446.792 304.165 446.792 304.165L476.35 299.529L490.174 297.366C490.174 297.366 494.453 297.685 501.647 298.306C510.929 299.153 525.074 300.563 541.146 302.604C545.641 303.178 550.287 303.798 555.017 304.485C563.481 305.689 572.18 307.052 580.794 308.585C589.258 310.08 597.534 311.736 605.406 313.569C614.859 315.663 624.169 318.355 633.28 321.629C679.173 338.839 704.565 367.889 691.098 423.619Z" fill="white"/>
<path d="M352.814 349.438L337.964 324.902C342.479 323.397 347.153 321.996 351.902 320.679L365.002 342.309C369.714 350.115 357.516 357.196 352.814 349.438Z" fill="#F4F2F3"/>
<path d="M605.434 313.626C584.766 321.818 564.524 331.046 544.785 341.275C539.443 344.04 532.71 339.469 534.44 333.309C537.257 323.232 539.511 313.006 541.193 302.679C545.688 303.253 550.334 303.874 555.064 304.56C554.142 310.428 553.042 316.259 551.763 322.052C561.356 317.356 571.048 312.892 580.841 308.66C589.249 310.137 597.562 311.792 605.434 313.626Z" fill="#F4F2F3"/>
<path d="M593.819 382.851C590.857 381.074 585.685 381.911 584.171 385.381C578.358 398.8 571.028 411.51 562.324 423.262C560.039 426.347 561.835 431.105 564.854 432.911C568.418 435.046 572.255 433.428 574.503 430.381C583.206 418.627 590.539 405.918 596.359 392.5C597.882 388.983 597.365 384.977 593.819 382.851Z" fill="#F4F2F3"/>
<path d="M471.92 351.761L458.378 330.563C453.506 322.927 441.3 329.999 446.199 337.682L459.751 358.88C464.613 366.507 476.829 359.425 471.92 351.761Z" fill="#F4F2F3"/>
<path d="M368.039 541.983C367.757 546.243 367.381 550.447 366.939 554.735C366.497 559.023 366.779 564.638 363.761 568.089C357.61 575.124 347.848 566.603 341.989 563.199L332.792 557.857V541.559L342.873 547.409C346.231 549.356 349.569 551.462 352.955 553.465C353.096 552.074 353.237 550.644 353.359 549.28C353.717 545.331 354.002 541.378 354.215 537.422C354.507 532.146 354.657 526.86 354.704 521.575C347.278 523.421 339.963 525.685 332.792 528.356V513.393C341.638 510.303 350.684 507.817 359.867 505.955C364.362 505.014 368.726 507.929 368.792 512.754C368.933 522.506 368.707 532.259 368.039 541.983Z" fill="#F4F2F3"/>
<path d="M462.394 583.465C462.1 584.123 461.717 584.737 461.256 585.29L433.184 619.146C432.974 620.434 432.306 621.603 431.303 622.437L428.952 624.318C428.279 624.859 427.527 625.293 426.723 625.606H421.4C417.45 623.979 415.221 618.873 418.983 614.321L451.287 575.312C451.783 574.655 452.409 574.108 453.126 573.703C453.842 573.299 454.635 573.046 455.453 572.961C460.099 572.585 464.651 578.359 462.394 583.465Z" fill="#F4F2F3"/>
<path d="M579.826 494.848C573.495 483.256 566.2 472.217 558.017 461.848C555.647 458.829 550.494 459.412 548.039 461.848C545.048 464.782 545.707 468.845 548.039 471.826C555.404 481.292 561.963 491.359 567.647 501.92C571.973 509.895 584.161 502.804 579.826 494.848Z" fill="#F4F2F3"/>
<path d="M658.738 460.879L644.866 448.513C644.057 447.778 643.093 447.235 642.045 446.923C638.866 442.137 629.302 443.472 628.945 450.911L627.355 484.259C627.12 489.365 627.732 494.716 633.261 496.682C637.963 498.365 643.333 495.563 647.274 493.108C651.06 490.678 654.554 487.819 657.684 484.588C660.694 481.569 665.057 477.911 666.064 473.622C667.418 467.876 662.49 464.227 658.738 460.879ZM649.766 472.494C648.252 474.102 646.71 475.682 645.064 477.196C643.988 478.183 642.858 479.109 641.678 479.97C641.683 479.905 641.683 479.839 641.678 479.773C641.835 476.469 641.992 473.165 642.148 469.861L642.374 465.158L644.594 467.133L648.75 470.895L650.133 472.127C650.01 472.221 649.898 472.362 649.766 472.494Z" fill="#F4F2F3"/>
<path d="M485.312 467.265C482.627 454.798 480.811 442.159 479.876 429.441C479.209 420.441 465.102 420.366 465.77 429.441C466.79 443.42 468.776 457.312 471.713 471.017C473.622 479.886 487.221 476.133 485.312 467.265Z" fill="#F4F2F3"/>
<path d="M264.723 431.303C263.256 441.441 257.096 450.243 246.77 452.782C239.397 454.607 232.062 452.839 225.902 448.917C228.018 445.024 230.322 440.877 232.777 436.551C240.009 441.46 249.168 439.569 250.833 429.431C251.585 424.823 251.407 419.275 248.952 415.165C248.389 414.218 247.674 413.369 246.836 412.654C249.294 408.66 251.802 404.654 254.36 400.635C255.639 401.528 256.815 402.559 257.868 403.71C264.714 411.149 266.115 421.72 264.723 431.303Z" fill="#F4F2F3"/>
<path d="M348.215 431.67C341.094 426.928 334.454 421.501 328.391 415.466C321.93 409.062 311.952 419.03 318.413 425.434C325.36 432.295 332.957 438.465 341.096 443.858C348.685 448.889 355.758 436.673 348.215 431.67Z" fill="#F4F2F3"/>
<path d="M389.848 362.115C387.29 372.949 384.428 383.698 381.262 394.363C378.666 403.09 392.275 406.814 394.861 398.124C398.033 387.466 400.895 376.717 403.447 365.877C405.535 357.037 391.936 353.275 389.848 362.115Z" fill="#F4F2F3"/>
<path d="M440.528 533.265C435.983 525.205 430.939 517.438 425.425 510.008C423.14 506.923 419.34 505.446 415.776 507.478C412.738 509.199 410.98 514.061 413.246 517.127C418.76 524.557 423.805 532.324 428.35 540.384C432.807 548.293 444.995 541.192 440.528 533.265Z" fill="#F4F2F3"/>
<path d="M586.371 625.569H566.227C556.465 615.769 547.08 605.625 538.07 595.136C535.907 605.274 533.741 615.418 531.572 625.569H517.117C520.528 609.625 523.939 593.682 527.349 577.738C528.403 572.829 535.813 570.563 539.142 574.625C553.833 592.552 569.605 609.565 586.371 625.569Z" fill="#F4F2F3"/>
<path d="M644.49 544.343L631.851 558.309V558.45H597.506C588.421 558.45 588.431 544.343 597.506 544.343H644.49Z" fill="#F4F2F3"/>
<path d="M506.491 517.277L498.835 503.171C494.519 495.187 482.331 502.296 486.657 510.29C489.208 515.011 491.76 519.713 494.312 524.397C498.628 532.381 510.817 525.271 506.491 517.277Z" fill="#F4F2F3"/>
<path d="M566.754 503.923L599.453 400.325" stroke="#E8C2CA" stroke-width="3" stroke-linecap="round" stroke-linejoin="round"/>
<path d="M457.87 448.372C444.036 432.902 421.588 402.629 410.66 406.748C399.732 410.867 404.077 431.265 422.557 451.165L457.87 448.372Z" fill="url(#paint1_linear_35_1583)"/>
<path d="M411.695 496.56H250.09C247.527 496.482 245.069 495.522 243.133 493.84C241.196 492.159 239.9 489.861 239.463 487.334L224.144 386.858C223.918 385.718 223.952 384.543 224.244 383.419C224.536 382.295 225.078 381.251 225.829 380.365C226.58 379.479 227.521 378.774 228.582 378.303C229.644 377.831 230.798 377.605 231.959 377.641H393.563C396.124 377.72 398.58 378.68 400.516 380.359C402.452 382.038 403.75 384.333 404.19 386.858L419.51 487.324C419.737 488.465 419.703 489.642 419.412 490.768C419.121 491.893 418.58 492.939 417.829 493.826C417.078 494.714 416.136 495.421 415.074 495.894C414.012 496.367 412.857 496.595 411.695 496.56Z" fill="#230707"/>
<path d="M246.854 400.908C248.531 399.098 248.183 396.049 246.076 394.096C243.969 392.144 240.902 392.029 239.225 393.838C237.548 395.648 237.897 398.697 240.003 400.65C242.11 402.602 245.177 402.717 246.854 400.908Z" fill="#F35D5E"/>
<path d="M391.945 224.943C367.739 224.886 364.099 204.507 369.92 190.852C375.742 177.197 395.585 172.984 395.585 172.984C395.585 172.984 388.127 167.529 394.494 159.695C400.861 151.862 437.754 143.859 460.249 153.112C482.745 162.366 486.779 171.488 486.779 171.488C486.779 171.488 481.87 158.567 489.149 158.755C496.428 158.943 503.35 183.996 500.434 214.814C498.337 236.924 500.161 264.413 462.817 265.231L391.945 224.943Z" fill="#230707"/>
<path d="M430.174 282.008L433.936 311.858C433.936 311.858 433.729 319.946 453.027 319.09C472.325 318.234 491.726 307.701 490.24 297.413C488.754 287.124 480.046 244.871 480.046 244.871L430.174 282.008Z" fill="url(#paint2_linear_35_1583)"/>
<path d="M482.105 257.802C484.785 248.078 483.14 236.172 483.14 236.172C483.14 236.172 486.111 240.178 496.127 238.993C506.143 237.808 514.625 225.281 507.77 212.717C500.914 200.153 476.951 208.353 479.077 224.125C460.992 219.516 462.817 194.764 462.817 194.764C462.817 194.764 462.572 201.498 450.253 202.955C437.933 204.413 432.111 201.554 432.111 201.554C432.111 201.554 438.121 208.288 428.961 211.448C419.801 214.607 406.268 207.385 406.268 207.385C406.268 207.385 410.275 213.817 405.112 215.332C399.949 216.846 386.848 215.087 383.482 208.109C383.482 208.109 391.428 252.827 393.826 263.595C403.108 287.256 423.676 291.986 443.669 288.535C463.663 285.084 479.801 266.171 482.105 257.802Z" fill="url(#paint3_linear_35_1583)"/>
<path d="M426.591 237.658L425.745 253.485C425.713 254.061 425.806 254.638 426.015 255.175C426.225 255.713 426.548 256.199 426.961 256.602C427.374 257.005 427.869 257.314 428.412 257.51C428.955 257.705 429.533 257.782 430.108 257.736L436.362 257.247" stroke="#ED8772" stroke-width="3" stroke-linecap="round" stroke-linejoin="round"/>
<path d="M440.18 269.595C440.18 269.595 449.754 270.798 453.516 263.237" stroke="#ED8772" stroke-width="3" stroke-linecap="round" stroke-linejoin="round"/>
<path d="M492.055 229.222C489.788 220.297 495.516 217.203 498.977 217.476" stroke="#ED8772" stroke-width="3" stroke-linecap="round" stroke-linejoin="round"/>
<path d="M493.061 222.122L498.977 224.764" stroke="#ED8772" stroke-width="3" stroke-linecap="round" stroke-linejoin="round"/>
<path d="M452.238 245.254C454.497 244.944 456.048 242.649 455.702 240.128C455.356 237.607 453.245 235.814 450.986 236.124C448.727 236.433 447.176 238.729 447.522 241.25C447.867 243.771 449.979 245.564 452.238 245.254Z" fill="#230707"/>
<path d="M408.506 251.254C410.765 250.944 412.316 248.649 411.97 246.128C411.624 243.607 409.513 241.814 407.254 242.124C404.995 242.433 403.444 244.729 403.79 247.25C404.135 249.771 406.247 251.564 408.506 251.254Z" fill="#230707"/>
<path d="M397.861 233.952C399.477 232.2 401.594 230.99 403.923 230.485C406.252 229.98 408.68 230.205 410.876 231.131" stroke="#230707" stroke-width="4" stroke-linecap="round" stroke-linejoin="round"/>
<path d="M455.293 222.855C453.154 221.8 450.742 221.431 448.386 221.798C446.03 222.165 443.844 223.25 442.127 224.905" stroke="#230707" stroke-width="4" stroke-linecap="round" stroke-linejoin="round"/>
<path d="M566.744 503.914L547.757 556.494C547.757 556.494 461.115 452.011 457.842 448.343C454.569 444.676 391.221 446.162 373.927 446.528C356.632 446.895 330.422 444.337 327.149 450.892C323.877 457.447 332.792 461.086 332.792 461.086C332.792 461.086 327.695 464.905 328.786 471.093C329.877 477.281 334.974 478.193 334.974 478.193C334.974 478.193 330.61 482.895 331.522 486.572C332.435 490.249 337.711 491.114 337.711 491.114C337.711 491.114 333.338 495.488 335.519 500.039C337.701 504.591 350.632 511.87 370.654 513.139C390.676 514.409 417.431 515.481 417.431 515.481L490.24 625.569H628.578L659.612 527.613L566.744 503.914Z" fill="url(#paint4_linear_35_1583)"/>
<path d="M547.757 556.494L566.321 585.252" stroke="#ED8772" stroke-width="3" stroke-linecap="round" stroke-linejoin="round"/>
<path d="M332.792 461.115C349.821 463.846 367.054 465.104 384.3 464.877" stroke="#ED8772" stroke-width="3" stroke-linecap="round" stroke-linejoin="round"/>
<path d="M335.209 478.86C352.241 481.591 369.478 482.85 386.726 482.622" stroke="#ED8772" stroke-width="3" stroke-linecap="round" stroke-linejoin="round"/>
<path d="M338.068 492.751C355.097 495.487 372.33 496.746 389.576 496.513" stroke="#ED8772" stroke-width="3" stroke-linecap="round" stroke-linejoin="round"/>
<path d="M582.299 454.663L574.334 404.688" stroke="#E8C2CA" stroke-width="3" stroke-linecap="round" stroke-linejoin="round"/>
<path d="M488.058 284.999C488.058 294.93 452.321 315.864 453.516 318.225C454.71 320.585 464.397 343.889 473.265 345.497C482.133 347.105 502.691 319.165 505.842 310.184C508.992 301.203 488.058 284.999 488.058 284.999Z" fill="#F35D5E"/>
<path d="M431.284 290.83C431.378 305.877 453.516 318.224 453.516 318.224C453.516 318.224 440.547 341.162 436.362 344.256C432.177 347.35 423.798 331.88 421.616 316.776C419.434 301.673 431.284 290.83 431.284 290.83Z" fill="#F35D5E"/>
<g filter="url(#filter1_d_35_1583)">
<path d="M409.278 0H218.303C212.59 0 207.959 4.63152 207.959 10.3448V121.899C207.959 127.613 212.59 132.244 218.303 132.244H409.278C414.991 132.244 419.623 127.613 419.623 121.899V10.3448C419.623 4.63152 414.991 0 409.278 0Z" fill="#F35D5E"/>
</g>
<path d="M269.068 16.2788H227.501C226.478 16.2788 225.648 17.1062 225.648 18.1268C225.648 19.1474 226.478 19.9747 227.501 19.9747H269.068C270.091 19.9747 270.921 19.1474 270.921 18.1268C270.921 17.1062 270.091 16.2788 269.068 16.2788Z" fill="#FEF8F8"/>
<path opacity="0.5" d="M255.197 26.4263H227.501C226.478 26.4263 225.648 27.2536 225.648 28.2742C225.648 29.2948 226.478 30.1222 227.501 30.1222H255.197C256.22 30.1222 257.049 29.2948 257.049 28.2742C257.049 27.2536 256.22 26.4263 255.197 26.4263Z" fill="#FEF8F8"/>
<path opacity="0.15" d="M396.836 35.915H377.416C376.58 35.915 375.902 36.5929 375.902 37.4291V108.423C375.902 109.259 376.58 109.937 377.416 109.937H396.836C397.672 109.937 398.35 109.259 398.35 108.423V37.4291C398.35 36.5929 397.672 35.915 396.836 35.915Z" fill="white"/>
<path opacity="0.15" d="M364.315 35.915H344.895C344.059 35.915 343.381 36.5929 343.381 37.4291V108.423C343.381 109.259 344.059 109.937 344.895 109.937H364.315C365.152 109.937 365.83 109.259 365.83 108.423V37.4291C365.83 36.5929 365.152 35.915 364.315 35.915Z" fill="white"/>
<path opacity="0.15" d="M331.795 35.915H312.375C311.539 35.915 310.861 36.5929 310.861 37.4291V108.423C310.861 109.259 311.539 109.937 312.375 109.937H331.795C332.631 109.937 333.309 109.259 333.309 108.423V37.4291C333.309 36.5929 332.631 35.915 331.795 35.915Z" fill="white"/>
<path d="M225.648 92.887C225.648 92.887 237.695 64.6739 256.137 64.6739C274.579 64.6739 282.469 93.4983 304.438 93.4983C326.406 93.4983 330.695 78.1221 354.281 61.6833C372.422 49.0721 398.312 59.6896 398.312 59.6896" stroke="white" stroke-width="4.11" stroke-linecap="round" stroke-linejoin="round"/>
<g filter="url(#filter2_d_35_1583)">
<path d="M586.668 255.714C613.546 255.714 635.335 233.924 635.335 207.046C635.335 180.168 613.546 158.378 586.668 158.378C559.789 158.378 538 180.168 538 207.046C538 233.924 559.789 255.714 586.668 255.714Z" fill="#F35D5E"/>
</g>
<path d="M595.906 179.892L595.895 179.892L595.885 179.892C595.366 179.887 594.853 179.996 594.38 180.212C593.911 180.427 593.493 180.742 593.155 181.135C592.154 182.217 591.292 183.422 590.587 184.723C590.065 185.541 589.571 186.394 589.082 187.239C589.055 187.286 589.027 187.334 589 187.381C588.479 188.281 587.961 189.17 587.407 190.018C586.299 191.714 585.068 193.208 583.446 194.235C582.943 194.55 582.435 194.861 581.927 195.171C578.73 197.126 575.5 199.101 573.157 202.439C573.086 202.54 572.922 202.648 572.601 202.769C572.466 202.82 572.324 202.866 572.169 202.916C572.15 202.922 572.131 202.929 572.111 202.935C571.94 202.991 571.754 203.052 571.58 203.124L571.58 203.124L571.574 203.126C571.376 203.211 571.177 203.295 570.978 203.38C566.812 205.153 562.603 206.945 558.371 208.663L558.369 208.664C557.867 208.87 557.451 209.091 557.148 209.342C556.843 209.595 556.607 209.916 556.57 210.319C556.533 210.718 556.702 211.077 556.94 211.383C557.179 211.689 557.525 211.993 557.947 212.3C559.63 213.535 561.33 214.79 563.035 216.049C564.857 217.394 566.684 218.743 568.504 220.077C568.527 220.096 568.55 220.115 568.574 220.135C568.873 220.381 569.246 220.688 569.664 220.851C570.175 221.052 570.739 221.038 571.339 220.654L571.342 220.652C572.461 219.923 573.233 219.949 573.848 220.263C574.526 220.61 575.124 221.359 575.743 222.337C577.739 225.664 579.384 229.195 580.65 232.874L580.65 232.874L580.654 232.884C580.978 233.762 581.407 234.43 582.081 234.735C582.757 235.04 583.527 234.912 584.357 234.589L584.357 234.589L584.362 234.586C586.86 233.577 589.102 232.009 590.923 229.998C592.141 228.711 593.316 227.367 594.484 226.031L594.494 226.019C595.669 224.675 596.839 223.338 598.053 222.056C600.01 219.991 601.596 219.051 603.131 218.996C604.666 218.941 606.31 219.766 608.399 221.653L608.399 221.653C608.722 221.944 609.044 222.237 609.367 222.529C610.679 223.717 611.994 224.909 613.335 226.057C613.599 226.287 613.98 226.61 614.411 226.778C614.636 226.866 614.894 226.92 615.172 226.888C615.454 226.855 615.723 226.737 615.966 226.531C616.2 226.333 616.363 226.105 616.445 225.844C616.525 225.585 616.513 225.336 616.465 225.119C616.418 224.906 616.334 224.708 616.255 224.542C616.215 224.458 616.173 224.374 616.136 224.299C616.097 224.222 616.062 224.152 616.032 224.085L616.031 224.084C612.554 216.537 609.859 208.688 607.157 200.819C606.071 197.655 604.983 194.488 603.843 191.335C602.879 188.403 601.655 185.566 600.186 182.86C599.812 182.019 599.218 181.297 598.467 180.773L598.183 181.179L598.467 180.773C597.71 180.246 596.824 179.94 595.906 179.892ZM579.516 222.941C578.614 220.907 577.267 219.113 575.579 217.694C582.444 211.688 586.233 203.863 589.731 195.964C590.495 194.248 591.204 192.51 591.907 190.775C591.964 190.635 592.021 190.496 592.077 190.356C592.724 188.76 593.369 187.169 594.053 185.593L594.054 185.59C594.133 185.404 594.206 185.221 594.276 185.043C594.458 184.584 594.627 184.157 594.868 183.788C595.174 183.32 595.537 183.043 596.117 183.043C596.701 183.043 597.087 183.327 597.42 183.804C597.68 184.177 597.869 184.607 598.069 185.063C598.144 185.234 598.221 185.41 598.304 185.586C600.679 191.026 602.767 196.591 604.558 202.258L604.558 202.258L604.562 202.27C606.593 208.158 608.651 214.082 611.065 220.064C610.598 219.734 610.175 219.341 609.807 218.894L609.782 218.863L609.752 218.836C607.589 216.924 605.393 215.912 603.178 215.939C600.959 215.967 598.824 217.035 596.783 219.071C595.257 220.569 593.843 222.203 592.443 223.821C591.783 224.584 591.126 225.344 590.461 226.084L590.456 226.09L590.451 226.095C588.787 228.064 586.837 229.761 584.668 231.127C584.005 231.517 583.695 231.541 583.529 231.481C583.358 231.419 583.121 231.189 582.832 230.435C581.86 227.875 580.691 225.386 579.516 222.941ZM562.301 211.808C561.874 211.489 561.427 211.157 560.952 210.805C561.617 210.528 562.272 210.255 562.919 209.986C566.522 208.487 569.868 207.095 573.152 205.575C573.781 205.297 574.211 205.369 574.599 205.563C574.811 205.669 575.02 205.818 575.249 205.999C575.328 206.062 575.416 206.133 575.507 206.209C575.659 206.332 575.821 206.465 575.973 206.58L575.974 206.581C576.977 207.338 577.695 207.881 578.176 208.336C578.664 208.798 578.814 209.084 578.835 209.307C578.856 209.527 578.766 209.828 578.376 210.357C577.992 210.88 577.393 211.527 576.555 212.43L576.554 212.432C575.14 213.969 574.099 215.094 573.22 215.859C572.342 216.625 571.69 216.971 571.064 217.04C570.441 217.109 569.745 216.913 568.751 216.354C567.756 215.795 566.537 214.917 564.877 213.71L564.877 213.71C564.038 213.102 563.212 212.486 562.301 211.808ZM579.072 200.186L579.079 200.18L579.087 200.173C579.65 199.646 580.301 199.226 581.009 198.932C582.955 198.268 584.754 197.241 586.316 195.909C584.923 199.376 583.229 202.712 581.254 205.877L581.254 205.876L581.247 205.888C581.003 206.304 580.849 206.416 580.778 206.437L580.777 206.437C580.762 206.442 580.633 206.481 580.285 206.162L580.285 206.162L580.277 206.155C579.883 205.81 579.471 205.487 579.042 205.188C578.191 204.524 577.587 204.039 577.191 203.634C576.788 203.221 576.694 202.979 576.694 202.809C576.693 202.631 576.794 202.37 577.202 201.915C577.601 201.47 578.214 200.928 579.072 200.186Z" fill="white" stroke="white"/>
<path d="M595.615 188.378C596.254 191.179 596.817 193.616 597.37 196.096C598.53 201.146 599.667 206.196 600.849 211.245C601.12 212.348 601.185 213.175 599.657 213.451C597.218 213.836 595.528 215.567 593.892 217.309C591.724 219.592 589.925 222.172 587.563 224.244C585.743 225.843 585.721 225.832 584.821 223.693C584.821 223.561 584.724 223.429 584.659 223.296C584.074 222.028 583.034 220.782 583.001 219.504C582.947 217.883 585.071 218.202 586.014 217.221C587.324 215.874 588.317 214.241 588.918 212.447C591.256 205.263 593.188 197.948 594.704 190.539C594.763 189.736 595.083 188.975 595.615 188.378Z" fill="white"/>
</g>
<defs>
<filter id="filter0_d_35_1583" x="-38" y="184.006" width="385.187" height="269.185" filterUnits="userSpaceOnUse" color-interpolation-filters="sRGB">
<feFlood flood-opacity="0" result="BackgroundImageFix"/>
<feColorMatrix in="SourceAlpha" type="matrix" values="0 0 0 0 0 0 0 0 0 0 0 0 0 0 0 0 0 0 127 0" result="hardAlpha"/>
<feMorphology radius="8" operator="erode" in="SourceAlpha" result="effect1_dropShadow_35_1583"/>
<feOffset dy="23"/>
<feGaussianBlur stdDeviation="23"/>
<feComposite in2="hardAlpha" operator="out"/>
<feColorMatrix type="matrix" values="0 0 0 0 0.952941 0 0 0 0 0.364706 0 0 0 0 0.368627 0 0 0 0.45 0"/>
<feBlend mode="normal" in2="BackgroundImageFix" result="effect1_dropShadow_35_1583"/>
<feBlend mode="normal" in="SourceGraphic" in2="effect1_dropShadow_35_1583" result="shape"/>
</filter>
<filter id="filter1_d_35_1583" x="169.959" y="-15" width="287.664" height="208.244" filterUnits="userSpaceOnUse" color-interpolation-filters="sRGB">
<feFlood flood-opacity="0" result="BackgroundImageFix"/>
<feColorMatrix in="SourceAlpha" type="matrix" values="0 0 0 0 0 0 0 0 0 0 0 0 0 0 0 0 0 0 127 0" result="hardAlpha"/>
<feMorphology radius="8" operator="erode" in="SourceAlpha" result="effect1_dropShadow_35_1583"/>
<feOffset dy="23"/>
<feGaussianBlur stdDeviation="23"/>
<feComposite in2="hardAlpha" operator="out"/>
<feColorMatrix type="matrix" values="0 0 0 0 0.952941 0 0 0 0 0.364706 0 0 0 0 0.368627 0 0 0 0.45 0"/>
<feBlend mode="normal" in2="BackgroundImageFix" result="effect1_dropShadow_35_1583"/>
<feBlend mode="normal" in="SourceGraphic" in2="effect1_dropShadow_35_1583" result="shape"/>
</filter>
<filter id="filter2_d_35_1583" x="500" y="143.378" width="173.335" height="173.335" filterUnits="userSpaceOnUse" color-interpolation-filters="sRGB">
<feFlood flood-opacity="0" result="BackgroundImageFix"/>
<feColorMatrix in="SourceAlpha" type="matrix" values="0 0 0 0 0 0 0 0 0 0 0 0 0 0 0 0 0 0 127 0" result="hardAlpha"/>
<feMorphology radius="8" operator="erode" in="SourceAlpha" result="effect1_dropShadow_35_1583"/>
<feOffset dy="23"/>
<feGaussianBlur stdDeviation="23"/>
<feComposite in2="hardAlpha" operator="out"/>
<feColorMatrix type="matrix" values="0 0 0 0 0.952941 0 0 0 0 0.364706 0 0 0 0 0.368627 0 0 0 0.45 0"/>
<feBlend mode="normal" in2="BackgroundImageFix" result="effect1_dropShadow_35_1583"/>
<feBlend mode="normal" in="SourceGraphic" in2="effect1_dropShadow_35_1583" result="shape"/>
</filter>
<linearGradient id="paint0_linear_35_1583" x1="139.598" y1="345.168" x2="360.243" y2="861.957" gradientUnits="userSpaceOnUse">
<stop stop-color="#FFE5D9"/>
<stop offset="1" stop-color="#FFB29F"/>
</linearGradient>
<linearGradient id="paint1_linear_35_1583" x1="434.923" y1="442.626" x2="679.559" y2="683.377" gradientUnits="userSpaceOnUse">
<stop stop-color="#FFE5D9"/>
<stop offset="1" stop-color="#FFB29F"/>
</linearGradient>
<linearGradient id="paint2_linear_35_1583" x1="466.607" y1="327.159" x2="456.158" y2="273.723" gradientUnits="userSpaceOnUse">
<stop stop-color="#FFE5D9"/>
<stop offset="1" stop-color="#FFB29F"/>
</linearGradient>
<linearGradient id="paint3_linear_35_1583" x1="437.923" y1="290.613" x2="449.528" y2="193.231" gradientUnits="userSpaceOnUse">
<stop stop-color="#FFE5D9"/>
<stop offset="1" stop-color="#FFB29F"/>
</linearGradient>
<linearGradient id="paint4_linear_35_1583" x1="430.014" y1="447.61" x2="674.65" y2="688.362" gradientUnits="userSpaceOnUse">
<stop stop-color="#FFE5D9"/>
<stop offset="1" stop-color="#FFB29F"/>
</linearGradient>
<clipPath id="clip0_35_1583">
<rect width="694.7" height="625.569" fill="white"/>
</clipPath>
</defs>
</svg>
