<svg width="29" height="29" viewBox="0 0 29 29" fill="none" xmlns="http://www.w3.org/2000/svg">
<path d="M25.9344 4.875H3.18445C2.70046 4.875 2.30945 5.26602 2.30945 5.75V23.25C2.30945 23.734 2.70046 24.125 3.18445 24.125H25.9344C26.4184 24.125 26.8094 23.734 26.8094 23.25V5.75C26.8094 5.26602 26.4184 4.875 25.9344 4.875ZM24.8407 7.90469V22.1562H4.2782V7.90469L3.52351 7.3168L4.59812 5.93594L5.76843 6.84648H23.3532L24.5235 5.93594L25.5981 7.3168L24.8407 7.90469ZM23.3532 6.84375L14.5594 13.6797L5.7657 6.84375L4.59539 5.9332L3.52078 7.31406L4.27546 7.90195L13.6161 15.1645C13.8847 15.3731 14.2152 15.4864 14.5553 15.4864C14.8955 15.4864 15.226 15.3731 15.4946 15.1645L24.8407 7.90469L25.5954 7.3168L24.5208 5.93594L23.3532 6.84375Z" fill="#F35D5E"/>
</svg>
