<svg width="35" height="34" viewBox="0 0 35 34" fill="none" xmlns="http://www.w3.org/2000/svg">
<path d="M27.8263 18.3885C27.8825 17.9352 27.9246 17.4818 27.9246 17.0002C27.9246 16.5185 27.8825 16.0652 27.8263 15.6118L30.7889 13.2743C31.0556 13.0618 31.1258 12.6793 30.9573 12.3677L28.1493 7.466C27.9808 7.15433 27.6017 7.041 27.2928 7.15433L23.7968 8.571C23.0667 8.00433 22.2804 7.53683 21.4239 7.18266L20.8904 3.4285C20.8483 3.0885 20.5534 2.8335 20.2024 2.8335H14.5863C14.2353 2.8335 13.9404 3.0885 13.8983 3.4285L13.3648 7.18266C12.5083 7.53683 11.722 8.0185 10.9919 8.571L7.49589 7.15433C7.17296 7.02683 6.80791 7.15433 6.63943 7.466L3.83135 12.3677C3.64883 12.6793 3.73307 13.0618 3.99984 13.2743L6.96236 15.6118C6.90619 16.0652 6.86407 16.5327 6.86407 17.0002C6.86407 17.4677 6.90619 17.9352 6.96236 18.3885L3.99984 20.726C3.73307 20.9385 3.66287 21.321 3.83135 21.6327L6.63943 26.5343C6.80791 26.846 7.187 26.9593 7.49589 26.846L10.9919 25.4293C11.722 25.996 12.5083 26.4635 13.3648 26.8177L13.8983 30.5718C13.9404 30.9118 14.2353 31.1668 14.5863 31.1668H20.2024C20.5534 31.1668 20.8483 30.9118 20.8904 30.5718L21.4239 26.8177C22.2804 26.4635 23.0667 25.9818 23.7968 25.4293L27.2928 26.846C27.6157 26.9735 27.9808 26.846 28.1493 26.5343L30.9573 21.6327C31.1258 21.321 31.0556 20.9385 30.7889 20.726L27.8263 18.3885ZM17.3943 21.9585C14.6846 21.9585 12.4802 19.7343 12.4802 17.0002C12.4802 14.266 14.6846 12.0418 17.3943 12.0418C20.1041 12.0418 22.3085 14.266 22.3085 17.0002C22.3085 19.7343 20.1041 21.9585 17.3943 21.9585Z" fill="white"/>
</svg>
