<svg width="27" height="27" viewBox="0 0 27 27" fill="none" xmlns="http://www.w3.org/2000/svg">
<g clip-path="url(#clip0_35_1097)">
<path d="M13.5594 2.84244C17.0306 2.84244 17.4417 2.85564 18.8125 2.9181C20.08 2.97599 20.7684 3.18775 21.2265 3.36579C21.8332 3.60162 22.2663 3.88335 22.7212 4.33825C23.1762 4.79315 23.4578 5.22621 23.6937 5.83295C23.8717 6.29109 24.0835 6.97948 24.1413 8.24688C24.2038 9.61777 24.217 10.0289 24.217 13.5C24.217 16.9712 24.2038 17.3823 24.1413 18.7531C24.0835 20.0206 23.8717 20.7089 23.6937 21.1671C23.4578 21.7738 23.1761 22.207 22.7212 22.6619C22.2663 23.1168 21.8332 23.3985 21.2265 23.6342C20.7684 23.8123 20.08 24.0241 18.8125 24.0819C17.4419 24.1445 17.0308 24.1577 13.5594 24.1577C10.088 24.1577 9.67692 24.1445 8.30633 24.0819C7.03883 24.024 6.35054 23.8123 5.89239 23.6342C5.28566 23.3985 4.8525 23.1168 4.3976 22.6619C3.9427 22.2069 3.66096 21.7738 3.42524 21.1671C3.2472 20.709 3.03534 20.0206 2.97755 18.7531C2.91499 17.3823 2.90178 16.9712 2.90178 13.5C2.90178 10.0289 2.91499 9.61777 2.97755 8.24698C3.03544 6.97948 3.2472 6.29109 3.42524 5.83295C3.66096 5.22621 3.9427 4.79315 4.3976 4.33825C4.8526 3.88325 5.28566 3.60162 5.89239 3.36579C6.35044 3.18775 7.03883 2.97599 8.30633 2.9181C9.67712 2.85564 10.0882 2.84244 13.5594 2.84244ZM13.5594 0.5C10.0288 0.5 9.58612 0.51493 8.19959 0.578203C6.8158 0.641375 5.87076 0.861156 5.04394 1.1825C4.18899 1.51471 3.46403 1.95925 2.74132 2.68197C2.0186 3.40469 1.57416 4.12964 1.24195 4.98449C0.920503 5.81141 0.700823 6.75645 0.637651 8.14014C0.574378 9.52667 0.559448 9.96938 0.559448 13.5C0.559448 17.0306 0.574378 17.4733 0.637651 18.8599C0.700823 20.2436 0.920503 21.1887 1.24195 22.0155C1.57406 22.8704 2.0186 23.5954 2.74132 24.3181C3.46403 25.0409 4.18899 25.4853 5.04394 25.8175C5.87086 26.1389 6.8158 26.3586 8.19949 26.4218C9.58612 26.4851 10.0288 26.5 13.5594 26.5C17.0901 26.5 17.5328 26.4851 18.9193 26.4218C20.303 26.3586 21.248 26.1389 22.0749 25.8175C22.9298 25.4854 23.6548 25.0409 24.3775 24.3181C25.1002 23.5954 25.5447 22.8705 25.8769 22.0155C26.1983 21.1886 26.4181 20.2436 26.4812 18.86C26.5445 17.4733 26.5594 17.0306 26.5594 13.5C26.5594 9.96938 26.5445 9.52667 26.4812 8.14014C26.4181 6.75645 26.1983 5.81141 25.8769 4.98459C25.5447 4.12964 25.1002 3.40469 24.3775 2.68197C23.6548 1.95925 22.9298 1.51461 22.075 1.1825C21.248 0.861156 20.303 0.641375 18.9193 0.578203C17.5328 0.51493 17.0901 0.5 13.5594 0.5ZM13.5594 6.8243C9.87253 6.8243 6.88375 9.81328 6.88375 13.5C6.88375 17.1869 9.87253 20.1757 13.5594 20.1757C17.2463 20.1757 20.2352 17.1869 20.2352 13.5C20.2352 9.81318 17.2463 6.8243 13.5594 6.8243ZM13.5594 17.8334C11.1662 17.8334 9.22608 15.8932 9.22608 13.5C9.22608 11.1068 11.1662 9.16663 13.5594 9.16663C15.9527 9.16663 17.8928 11.1068 17.8928 13.5C17.8928 15.8932 15.9527 17.8334 13.5594 17.8334ZM22.0588 6.56054C22.0588 7.4222 21.3605 8.12054 20.4988 8.12054C19.6373 8.12054 18.9388 7.4222 18.9388 6.56054C18.9388 5.69898 19.6373 5.00054 20.4988 5.00054C21.3605 5.00054 22.0588 5.69898 22.0588 6.56054Z" fill="#F35D5E"/>
</g>
<defs>
<clipPath id="clip0_35_1097">
<rect width="26" height="26" fill="white" transform="translate(0.559448 0.5)"/>
</clipPath>
</defs>
</svg>
