<svg width="12" height="12" viewBox="0 0 12 12" fill="none" xmlns="http://www.w3.org/2000/svg">
<path fill-rule="evenodd" clip-rule="evenodd" d="M0.923096 3.46094C0.923096 1.80408 2.26624 0.460938 3.9231 0.460938H8.53848C10.1953 0.460938 11.5385 1.80408 11.5385 3.46094V8.07632C11.5385 9.73318 10.1953 11.0763 8.53848 11.0763H3.92309C2.26624 11.0763 0.923096 9.73318 0.923096 8.07632V3.46094ZM6.2308 4.19164C5.35989 4.19164 4.65387 4.89765 4.65387 5.76857C4.65387 6.63948 5.35989 7.34549 6.2308 7.34549C7.10171 7.34549 7.80772 6.63948 7.80772 5.76857C7.80772 4.89765 7.10171 4.19164 6.2308 4.19164ZM3.65387 5.76857C3.65387 4.34537 4.8076 3.19164 6.2308 3.19164C7.65399 3.19164 8.80772 4.34537 8.80772 5.76857C8.80772 7.19176 7.65399 8.34549 6.2308 8.34549C4.8076 8.34549 3.65387 7.19176 3.65387 5.76857Z" fill="white"/>
</svg>
