<svg width="27" height="27" viewBox="0 0 27 27" fill="none" xmlns="http://www.w3.org/2000/svg">
<g clip-path="url(#clip0_35_1095)">
<path d="M13.5594 0.5C20.7273 0.5 26.5594 5.232 26.5594 11.0495C26.5594 13.3781 25.6576 15.4744 23.7726 17.5397C21.0458 20.6793 14.9472 24.5029 13.5594 25.0879C12.2107 25.6566 12.3667 24.7677 12.4284 24.4167L12.4333 24.3875L12.6186 23.2744C12.6624 22.9429 12.7079 22.4277 12.5763 22.0995C12.4301 21.7371 11.8548 21.5486 11.4323 21.4576C5.1842 20.6338 0.559448 16.2641 0.559448 11.0495C0.559448 5.232 6.3932 0.5 13.5594 0.5ZM8.7202 12.9897H6.24207V8.49175C6.24207 8.4248 6.21559 8.36056 6.1684 8.31307C6.12121 8.26558 6.05715 8.23868 5.9902 8.23825H5.07695C5.04366 8.23825 5.01069 8.24481 4.97994 8.25755C4.94918 8.27029 4.92124 8.28896 4.8977 8.3125C4.87416 8.33604 4.85548 8.36398 4.84274 8.39474C4.83001 8.4255 4.82345 8.45846 4.82345 8.49175V14.1565C4.82345 14.2231 4.85107 14.2865 4.89495 14.3304V14.332L4.8982 14.3352L4.90145 14.3385C4.94857 14.3838 5.01157 14.4089 5.07695 14.4084H8.7202C8.85995 14.4084 8.97207 14.2946 8.97207 14.1549V13.2449C8.97229 13.2116 8.96594 13.1786 8.9534 13.1477C8.94086 13.1169 8.92236 13.0888 8.89898 13.0651C8.87559 13.0415 8.84776 13.0226 8.81709 13.0097C8.78641 12.9967 8.75349 12.99 8.7202 12.9897ZM10.0056 8.23825C9.93834 8.23825 9.87386 8.26496 9.82632 8.3125C9.77878 8.36004 9.75207 8.42452 9.75207 8.49175V14.1565C9.75207 14.2963 9.86582 14.4084 10.0056 14.4084H10.9188C11.0586 14.4084 11.1707 14.2946 11.1707 14.1565V8.49175C11.1707 8.4248 11.1442 8.36056 11.097 8.31307C11.0498 8.26558 10.9858 8.23868 10.9188 8.23825H10.0056ZM16.2829 8.23825C16.2157 8.23825 16.1512 8.26496 16.1037 8.3125C16.0562 8.36004 16.0294 8.42452 16.0294 8.49175V11.8555L13.4343 8.352C13.4278 8.34347 13.4207 8.33533 13.4132 8.32762V8.326C13.4081 8.32031 13.4026 8.31489 13.3969 8.30975L13.3921 8.30487C13.3865 8.29955 13.3805 8.29466 13.3742 8.29025H13.3726L13.3644 8.28375L13.3596 8.2805C13.357 8.27861 13.3543 8.27697 13.3514 8.27562L13.3384 8.2675H13.3352L13.3303 8.26425L13.3141 8.25775L13.3076 8.2545C13.3023 8.25257 13.2968 8.25094 13.2913 8.24963H13.2881L13.2832 8.248L13.2686 8.24475H13.2588L13.2539 8.24312H13.2474L13.2442 8.2415H12.3114C12.2445 8.2415 12.1803 8.26798 12.1328 8.31517C12.0853 8.36236 12.0584 8.42642 12.0579 8.49338V14.1581C12.0579 14.2979 12.1717 14.41 12.3114 14.41H13.2214C13.3628 14.41 13.4766 14.2962 13.4766 14.1581V10.7944L16.0766 14.3044C16.0939 14.3286 16.1153 14.3495 16.1399 14.3661L16.1416 14.3678L16.1578 14.3775L16.1643 14.3807C16.1685 14.3832 16.1728 14.3854 16.1773 14.3872L16.1887 14.3921L16.1968 14.3954C16.2022 14.3972 16.2076 14.3988 16.2131 14.4002H16.2179C16.2391 14.4063 16.2609 14.4096 16.2829 14.41H17.1929C17.3343 14.41 17.4481 14.2962 17.4481 14.1581V8.49175C17.4481 8.42452 17.4214 8.36004 17.3738 8.3125C17.3263 8.26496 17.2618 8.23825 17.1946 8.23825H16.2829ZM22.4823 9.40338V8.49338C22.4825 8.46008 22.4762 8.42708 22.4636 8.39624C22.4511 8.3654 22.4326 8.33734 22.4092 8.31365C22.3858 8.28996 22.358 8.2711 22.3273 8.25817C22.2967 8.24523 22.2637 8.23846 22.2304 8.23825H18.5872C18.5216 8.23833 18.4587 8.26398 18.4117 8.30975H18.4101L18.4084 8.313L18.4052 8.31787C18.3598 8.36443 18.3342 8.42674 18.3337 8.49175V14.1565C18.3337 14.2231 18.3613 14.2865 18.4052 14.3304L18.4084 14.3352L18.4117 14.3385C18.4589 14.3837 18.5218 14.4087 18.5872 14.4084H22.2304C22.3702 14.4084 22.4823 14.2946 22.4823 14.1549V13.2449C22.4825 13.2116 22.4762 13.1786 22.4636 13.1477C22.4511 13.1169 22.4326 13.0888 22.4092 13.0651C22.3858 13.0415 22.358 13.0226 22.3273 13.0097C22.2967 12.9967 22.2637 12.99 22.2304 12.9897H19.7507V12.0326H22.2288C22.3686 12.0326 22.4807 11.9189 22.4807 11.7791V10.8691C22.4809 10.8358 22.4746 10.8028 22.462 10.772C22.4495 10.7412 22.431 10.7131 22.4076 10.6894C22.3842 10.6657 22.3564 10.6469 22.3257 10.6339C22.295 10.621 22.2621 10.6142 22.2288 10.614H19.7507V9.65688H22.2288C22.3686 9.65688 22.4807 9.54313 22.4807 9.40338H22.4823Z" fill="#F35D5E"/>
</g>
<defs>
<clipPath id="clip0_35_1095">
<rect width="26" height="26" fill="white" transform="translate(0.559448 0.5)"/>
</clipPath>
</defs>
</svg>
