<svg width="14" height="14" viewBox="0 0 14 14" fill="none" xmlns="http://www.w3.org/2000/svg">
<path fill-rule="evenodd" clip-rule="evenodd" d="M3.8015 3.15492C4.64979 2.30664 5.80031 1.83008 6.99997 1.83008C8.19962 1.83008 9.35014 2.30664 10.1984 3.15492C11.0467 4.00321 11.5233 5.15373 11.5233 6.35339C11.5233 7.55304 11.0467 8.70356 10.1984 9.55185L6.99997 12.7503L3.8015 9.55185C3.38145 9.13184 3.04824 8.63319 2.82091 8.0844C2.59357 7.5356 2.47656 6.9474 2.47656 6.35339C2.47656 5.75937 2.59357 5.17117 2.82091 4.62237C3.04824 4.07358 3.38145 3.57494 3.8015 3.15492ZM6.99997 7.64569C7.34271 7.64569 7.67141 7.50954 7.91377 7.26719C8.15612 7.02483 8.29227 6.69613 8.29227 6.35339C8.29227 6.01064 8.15612 5.68194 7.91377 5.43959C7.67141 5.19723 7.34271 5.06108 6.99997 5.06108C6.65722 5.06108 6.32852 5.19723 6.08617 5.43959C5.84381 5.68194 5.70766 6.01064 5.70766 6.35339C5.70766 6.69613 5.84381 7.02483 6.08617 7.26719C6.32852 7.50954 6.65722 7.64569 6.99997 7.64569Z" fill="white"/>
</svg>
