<svg width="36" height="32" viewBox="0 0 36 32" fill="none" xmlns="http://www.w3.org/2000/svg">
<path d="M23.0694 0.597436L23.0589 0.596889L23.0483 0.596785C22.7282 0.593637 22.4113 0.660807 22.1197 0.793486C21.8312 0.92471 21.5744 1.11681 21.3664 1.35642C20.8015 1.96453 20.3141 2.64157 19.9155 3.37178C19.6245 3.82525 19.3497 4.29762 19.0805 4.7603C19.065 4.78699 19.0495 4.81365 19.034 4.84027C18.7447 5.33744 18.4604 5.82294 18.1569 6.28489C17.5494 7.20948 16.8876 8.00341 16.0269 8.54523C15.7515 8.71682 15.4723 8.8865 15.1914 9.05716C13.4194 10.1338 11.5831 11.2495 10.2543 13.1325C10.2546 13.132 10.2545 13.1321 10.2537 13.1328C10.2476 13.1382 10.2041 13.1766 10.0495 13.2345C9.97966 13.2606 9.90587 13.2845 9.81938 13.3124C9.80889 13.3158 9.79821 13.3192 9.78733 13.3228C9.69282 13.3533 9.58231 13.3896 9.47659 13.4329L9.47658 13.4328L9.47104 13.4352C9.36118 13.4817 9.25126 13.5282 9.14129 13.5748C6.82911 14.5536 4.49532 15.5416 2.14865 16.4888L2.14652 16.4897C1.85932 16.6072 1.6055 16.7392 1.41237 16.8981C1.21745 17.0585 1.03895 17.2854 1.01059 17.5896C0.982638 17.8896 1.11227 18.1442 1.26285 18.3365C1.41382 18.5293 1.62497 18.7108 1.866 18.8854C2.79623 19.5641 3.74027 20.2573 4.68766 20.9529C5.69839 21.695 6.71292 22.4399 7.71853 23.173C7.72993 23.1823 7.74176 23.192 7.75401 23.202C7.91579 23.3349 8.15038 23.5276 8.41708 23.6314C8.76512 23.7669 9.15236 23.7533 9.54583 23.503L9.54584 23.503L9.54921 23.5008C10.1213 23.1303 10.4649 23.1689 10.7185 23.2978C11.0355 23.4589 11.3392 23.823 11.6818 24.361C12.7805 26.1823 13.686 28.116 14.3832 30.1301L14.383 30.1301L14.3869 30.1406C14.5733 30.6423 14.8395 31.0824 15.2966 31.2879C15.7543 31.4936 16.2532 31.3967 16.7298 31.2117L16.7298 31.2118L16.7354 31.2095C18.1518 30.6402 19.4231 29.7561 20.4554 28.623C21.1339 27.9098 21.7875 27.1664 22.4343 26.4306L22.4413 26.4227C23.0938 25.6804 23.7397 24.9459 24.4098 24.242C25.4845 23.1143 26.3123 22.6499 27.0745 22.6227C27.8376 22.5956 28.6941 23.001 29.8415 24.0318L29.8416 24.0319C30.0201 24.1921 30.1987 24.3531 30.3777 24.5144C31.1054 25.17 31.8381 25.8302 32.5843 26.4656C32.7284 26.5901 32.9661 26.7933 33.2456 26.9018C33.3944 26.9596 33.5745 26.9989 33.773 26.9761C33.9765 26.9527 34.1653 26.8677 34.3309 26.7285C34.4869 26.5974 34.6057 26.437 34.6661 26.245C34.7258 26.0548 34.7152 25.8758 34.6825 25.7282C34.6508 25.5858 34.5953 25.4583 34.5493 25.3619C34.5284 25.3179 34.5065 25.2744 34.4876 25.2368L34.481 25.2237C34.4595 25.1809 34.4419 25.1456 34.4267 25.1125L34.4263 25.1117C32.502 20.9582 31.0125 16.644 29.5148 12.3061C28.9115 10.5587 28.3069 8.80755 27.672 7.06148C27.1342 5.43461 26.4514 3.86049 25.6322 2.35855C25.4076 1.86064 25.0528 1.4331 24.605 1.12264C24.1512 0.808032 23.6198 0.626059 23.0694 0.597436ZM4.11509 17.934C4.35808 17.8334 4.59891 17.7337 4.83776 17.6349C6.8369 16.8078 8.69749 16.038 10.5236 15.1974C10.809 15.0723 10.9789 15.1083 11.1372 15.1872C11.2343 15.2355 11.336 15.3064 11.4592 15.4034C11.4967 15.433 11.5425 15.4702 11.5921 15.5106C11.6794 15.5816 11.7784 15.6621 11.8649 15.7272L11.8655 15.7276C12.4266 16.1484 12.8128 16.4398 13.0685 16.6803C13.3317 16.9279 13.3612 17.0372 13.3647 17.0738C13.368 17.1078 13.3621 17.2152 13.153 17.4979C12.9491 17.7736 12.6275 18.1196 12.1589 18.6223L12.1576 18.6237C11.3697 19.4755 10.8017 20.0855 10.3256 20.4979C9.85003 20.9099 9.5305 21.0658 9.2504 21.0965C8.9725 21.1269 8.63541 21.0447 8.09903 20.745C7.56045 20.444 6.89613 19.9684 5.97119 19.3L5.97091 19.2997C5.50622 18.9644 5.05002 18.6264 4.54593 18.253C4.40639 18.1496 4.26317 18.0435 4.11509 17.934ZM14.1657 24.4806C13.6872 23.4083 12.989 22.4536 12.1195 21.6786C15.847 18.3517 17.9269 14.0659 19.8351 9.78079C20.2603 8.83022 20.6552 7.86812 21.0453 6.91148C21.0767 6.83434 21.1082 6.75724 21.1396 6.68019C21.4987 5.79915 21.8554 4.92384 22.2336 4.05671L22.2349 4.05362C22.2848 3.93704 22.3281 3.82842 22.3686 3.72652C22.4656 3.48313 22.5472 3.27805 22.6678 3.0944C22.8096 2.87853 22.9495 2.78388 23.1753 2.78388C23.4043 2.78388 23.5584 2.88394 23.7161 3.10883C23.8469 3.29546 23.939 3.50401 24.0461 3.74654C24.0892 3.84412 24.1348 3.94719 24.1862 4.05655C25.5005 7.04999 26.6556 10.1125 27.6466 13.2309L27.6465 13.231L27.6508 13.2433C28.6721 16.1882 29.7074 19.1535 30.8917 22.1458L30.8869 22.1417C29.6613 21.0644 28.3917 20.472 27.0899 20.4879C25.7846 20.5038 24.5483 21.1301 23.389 22.2796C22.5361 23.1124 21.7414 24.0257 20.9616 24.922C20.5967 25.3415 20.235 25.7571 19.8721 26.1591L19.8671 26.1646L19.8623 26.1703C18.9546 27.2384 17.8907 28.1591 16.7079 28.9006C16.5428 28.9968 16.4275 29.0454 16.3483 29.066C16.296 29.0797 16.272 29.0779 16.2654 29.0768C16.2596 29.0737 16.2372 29.059 16.2003 29.0089C16.1479 28.9377 16.0845 28.8196 16.0115 28.6301C15.4691 27.2086 14.8171 25.829 14.1657 24.4806ZM13.862 12.1899L13.8695 12.1835L13.8768 12.1768C14.1683 11.9056 14.5047 11.6891 14.8703 11.5371C15.7037 11.2538 16.4896 10.8535 17.2062 10.3509C16.5043 11.9745 15.68 13.5421 14.7401 15.0395L14.7399 15.0394L14.7328 15.0514C14.6874 15.1285 14.6502 15.1817 14.6209 15.2173C14.5998 15.2022 14.5728 15.1807 14.5396 15.1506L14.5397 15.1505L14.5317 15.1435C14.3085 14.9491 14.075 14.767 13.8323 14.598C13.3595 14.2311 13.0385 13.9745 12.8325 13.7644C12.6185 13.5463 12.6206 13.4679 12.6206 13.466C12.6205 13.4568 12.6253 13.3669 12.8445 13.1243C13.0549 12.8913 13.3829 12.6016 13.862 12.1899Z" fill="white" stroke="white"/>
<path d="M22.8964 5.50342C23.2511 7.04873 23.5638 8.39326 23.8704 9.76214C24.5138 12.5486 25.1451 15.335 25.8005 18.1214C25.9508 18.7298 25.9869 19.1861 25.1391 19.3382C23.7862 19.5511 22.8482 20.5063 21.9403 21.4676C20.7378 22.7269 19.7397 24.1506 18.429 25.2943C17.4188 26.1765 17.4068 26.1704 16.9077 24.9901C16.9077 24.9171 16.8537 24.8441 16.8176 24.7711C16.4929 24.0715 15.9157 23.384 15.8977 22.6783C15.8676 21.7839 17.0461 21.9604 17.5692 21.4189C18.2962 20.6753 18.8472 19.7746 19.1805 18.7846C20.4781 14.8203 21.5501 10.7842 22.3913 6.69587C22.4237 6.25257 22.6015 5.83288 22.8964 5.50342Z" fill="white"/>
</svg>
