<svg width="48" height="48" viewBox="0 0 48 48" fill="none" xmlns="http://www.w3.org/2000/svg">
<path fill-rule="evenodd" clip-rule="evenodd" d="M25.1904 5.11681C24.8279 4.90971 24.4176 4.80078 24 4.80078C23.5825 4.80078 23.1722 4.90971 22.8096 5.11681L6.00965 14.7168C5.55046 14.9795 5.19093 15.3865 4.98696 15.8747C4.78299 16.3628 4.74602 16.9046 4.88178 17.4159C5.01754 17.9272 5.31844 18.3793 5.73768 18.702C6.15693 19.0246 6.67103 19.1997 7.20005 19.2V36C6.56353 36 5.95308 36.2529 5.50299 36.703C5.05291 37.153 4.80005 37.7635 4.80005 38.4C4.80005 39.0365 5.05291 39.647 5.50299 40.0971C5.95308 40.5472 6.56353 40.8 7.20005 40.8H40.8C41.4366 40.8 42.047 40.5472 42.4971 40.0971C42.9472 39.647 43.2 39.0365 43.2 38.4C43.2 37.7635 42.9472 37.153 42.4971 36.703C42.047 36.2529 41.4366 36 40.8 36V19.2C41.3291 19.1997 41.8432 19.0246 42.2624 18.702C42.6817 18.3793 42.9826 17.9272 43.1183 17.4159C43.2541 16.9046 43.2171 16.3628 43.0131 15.8747C42.8092 15.3865 42.4496 14.9795 41.9904 14.7168L25.1904 5.11681ZM14.4 21.6C13.7635 21.6 13.1531 21.8529 12.703 22.303C12.2529 22.753 12 23.3635 12 24V31.2C12 31.8365 12.2529 32.447 12.703 32.8971C13.1531 33.3472 13.7635 33.6 14.4 33.6C15.0366 33.6 15.647 33.3472 16.0971 32.8971C16.5472 32.447 16.8 31.8365 16.8 31.2V24C16.8 23.3635 16.5472 22.753 16.0971 22.303C15.647 21.8529 15.0366 21.6 14.4 21.6ZM21.6 24C21.6 23.3635 21.8529 22.753 22.303 22.303C22.7531 21.8529 23.3635 21.6 24 21.6C24.6366 21.6 25.247 21.8529 25.6971 22.303C26.1472 22.753 26.4 23.3635 26.4 24V31.2C26.4 31.8365 26.1472 32.447 25.6971 32.8971C25.247 33.3472 24.6366 33.6 24 33.6C23.3635 33.6 22.7531 33.3472 22.303 32.8971C21.8529 32.447 21.6 31.8365 21.6 31.2V24ZM33.6 21.6C32.9635 21.6 32.3531 21.8529 31.903 22.303C31.4529 22.753 31.2 23.3635 31.2 24V31.2C31.2 31.8365 31.4529 32.447 31.903 32.8971C32.3531 33.3472 32.9635 33.6 33.6 33.6C34.2366 33.6 34.847 33.3472 35.2971 32.8971C35.7472 32.447 36 31.8365 36 31.2V24C36 23.3635 35.7472 22.753 35.2971 22.303C34.847 21.8529 34.2366 21.6 33.6 21.6Z" fill="white"/>
</svg>
