<svg width="46" height="46" viewBox="0 0 46 46" fill="none" xmlns="http://www.w3.org/2000/svg">
<path d="M29.9001 13.7999C29.9001 15.6299 29.1731 17.3849 27.8791 18.6789C26.5851 19.9729 24.83 20.6999 23 20.6999C21.1701 20.6999 19.415 19.9729 18.121 18.6789C16.827 17.3849 16.1001 15.6299 16.1001 13.7999C16.1001 11.9699 16.827 10.2149 18.121 8.92087C19.415 7.62686 21.1701 6.8999 23 6.8999C24.83 6.8999 26.5851 7.62686 27.8791 8.92087C29.1731 10.2149 29.9001 11.9699 29.9001 13.7999ZM41.4001 18.3999C41.4001 19.6199 40.9154 20.7899 40.0527 21.6526C39.1901 22.5153 38.02 22.9999 36.8001 22.9999C35.5801 22.9999 34.41 22.5153 33.5474 21.6526C32.6847 20.7899 32.2001 19.6199 32.2001 18.3999C32.2001 17.1799 32.6847 16.0099 33.5474 15.1472C34.41 14.2845 35.5801 13.7999 36.8001 13.7999C38.02 13.7999 39.1901 14.2845 40.0527 15.1472C40.9154 16.0099 41.4001 17.1799 41.4001 18.3999ZM32.2001 34.4999C32.2001 32.0599 31.2308 29.7199 29.5054 27.9945C27.7801 26.2692 25.44 25.2999 23 25.2999C20.5601 25.2999 18.22 26.2692 16.4947 27.9945C14.7693 29.7199 13.8001 32.0599 13.8001 34.4999V41.3999H32.2001V34.4999ZM13.8001 18.3999C13.8001 19.6199 13.3154 20.7899 12.4527 21.6526C11.5901 22.5153 10.42 22.9999 9.20005 22.9999C7.98005 22.9999 6.81003 22.5153 5.94736 21.6526C5.08469 20.7899 4.60005 19.6199 4.60005 18.3999C4.60005 17.1799 5.08469 16.0099 5.94736 15.1472C6.81003 14.2845 7.98005 13.7999 9.20005 13.7999C10.42 13.7999 11.5901 14.2845 12.4527 15.1472C13.3154 16.0099 13.8001 17.1799 13.8001 18.3999ZM36.8001 41.3999V34.4999C36.8034 32.1615 36.2096 29.8609 35.0751 27.8161C36.0947 27.5551 37.1606 27.5305 38.1912 27.7442C39.2219 27.9578 40.1901 28.404 41.0221 29.0487C41.8541 29.6934 42.5278 30.5197 42.9919 31.4644C43.456 32.4091 43.6982 33.4473 43.7001 34.4999V41.3999H36.8001ZM10.925 27.8161C9.79057 29.8609 9.19683 32.1615 9.20005 34.4999V41.3999H2.30005V34.4999C2.29961 33.4466 2.54031 32.4072 3.00373 31.4613C3.46714 30.5154 4.14095 29.6881 4.97353 29.043C5.80611 28.3978 6.77535 27.9517 7.80696 27.7391C8.83858 27.5264 9.90519 27.5528 10.925 27.8161Z" fill="white"/>
</svg>
