<svg width="25" height="25" viewBox="0 0 25 25" fill="none" xmlns="http://www.w3.org/2000/svg">
<g clip-path="url(#clip0_35_1093)">
<path fill-rule="evenodd" clip-rule="evenodd" d="M17.9744 14.8816C17.6764 14.7326 16.2154 14.0146 15.9434 13.9146C15.6714 13.8156 15.4734 13.7666 15.2744 14.0646C15.0764 14.3606 14.5074 15.0306 14.3344 15.2286C14.1604 15.4276 13.9874 15.4516 13.6904 15.3036C13.3934 15.1536 12.4354 14.8406 11.3004 13.8286C10.4174 13.0406 9.82045 12.0676 9.64745 11.7696C9.47445 11.4726 9.62845 11.3116 9.77745 11.1636C9.91145 11.0306 10.0744 10.8166 10.2234 10.6436C10.3724 10.4696 10.4214 10.3456 10.5204 10.1466C10.6204 9.94856 10.5704 9.77556 10.4954 9.62656C10.4214 9.47756 9.82745 8.01456 9.57945 7.41956C9.33845 6.84056 9.09345 6.91956 8.91145 6.90956C8.73745 6.90156 8.53945 6.89956 8.34145 6.89956C8.14345 6.89956 7.82145 6.97356 7.54945 7.27156C7.27645 7.56856 6.50945 8.28756 6.50945 9.75056C6.50945 11.2126 7.57345 12.6256 7.72245 12.8246C7.87145 13.0226 9.81745 16.0246 12.7984 17.3116C13.5084 17.6176 14.0614 17.8006 14.4924 17.9366C15.2044 18.1636 15.8524 18.1316 16.3644 18.0546C16.9344 17.9696 18.1224 17.3356 18.3704 16.6416C18.6174 15.9476 18.6174 15.3526 18.5434 15.2286C18.4694 15.1046 18.2714 15.0306 17.9734 14.8816H17.9744ZM12.5524 22.2846H12.5484C10.7779 22.2849 9.03982 21.8089 7.51645 20.9066L7.15645 20.6926L3.41445 21.6746L4.41345 18.0266L4.17845 17.6526C3.18859 16.0769 2.66474 14.2533 2.66745 12.3926C2.66945 6.94256 7.10345 2.50855 12.5564 2.50855C15.1964 2.50855 17.6784 3.53855 19.5444 5.40656C20.4648 6.32314 21.1943 7.41312 21.6907 8.61345C22.1871 9.81379 22.4406 11.1006 22.4364 12.3996C22.4344 17.8496 18.0004 22.2846 12.5524 22.2846ZM20.9644 3.98755C19.8626 2.87848 18.5517 1.99909 17.1075 1.40035C15.6634 0.801617 14.1148 0.495435 12.5514 0.499553C5.99745 0.499553 0.661448 5.83456 0.659448 12.3916C0.656411 14.4783 1.20382 16.5289 2.24645 18.3366L0.559448 24.4996L6.86345 22.8456C8.60732 23.7957 10.5615 24.2935 12.5474 24.2936H12.5524C19.1064 24.2936 24.4424 18.9586 24.4444 12.4006C24.4493 10.8378 24.1442 9.28966 23.5469 7.84559C22.9495 6.40152 22.0718 5.09023 20.9644 3.98755Z" fill="#F35D5E"/>
</g>
<defs>
<clipPath id="clip0_35_1093">
<rect width="24" height="24" fill="white" transform="translate(0.559448 0.5)"/>
</clipPath>
</defs>
</svg>
